<?xml version="1.0" encoding="UTF-8" standalone="no"?>
<svg
   xmlns:dc="http://purl.org/dc/elements/1.1/"
   xmlns:cc="http://creativecommons.org/ns#"
   xmlns:rdf="http://www.w3.org/1999/02/22-rdf-syntax-ns#"
   xmlns:svg="http://www.w3.org/2000/svg"
   xmlns="http://www.w3.org/2000/svg"
   xmlns:sodipodi="http://sodipodi.sourceforge.net/DTD/sodipodi-0.dtd"
   xmlns:inkscape="http://www.inkscape.org/namespaces/inkscape"
   id="Layer_1"
   viewBox="0 0 245 240"
   version="1.1"
   inkscape:version="0.91 r13725"
   sodipodi:docname="dscrd.svg">
  <metadata
     id="metadata13">
    <rdf:RDF>
      <cc:Work
         rdf:about="">
        <dc:format>image/svg+xml</dc:format>
        <dc:type
           rdf:resource="http://purl.org/dc/dcmitype/StillImage" />
      </cc:Work>
    </rdf:RDF>
  </metadata>
  <defs
     id="defs11" />
  <sodipodi:namedview
     pagecolor="#ffffff"
     bordercolor="#666666"
     borderopacity="1"
     objecttolerance="10"
     gridtolerance="10"
     guidetolerance="10"
     inkscape:pageopacity="0"
     inkscape:pageshadow="2"
     inkscape:window-width="1366"
     inkscape:window-height="705"
     id="namedview9"
     showgrid="false"
     inkscape:zoom="1.9666667"
     inkscape:cx="126.40964"
     inkscape:cy="143.5544"
     inkscape:window-x="-8"
     inkscape:window-y="-8"
     inkscape:window-maximized="1"
     inkscape:current-layer="Layer_1" />
  <style
     id="style3">.st0{fill:#7289DA;}</style>
  <path
     class="st0"
     d="M104.4 103.9c-5.7 0-10.2 5-10.2 11.1s4.6 11.1 10.2 11.1c5.7 0 10.2-5 10.2-11.1.1-6.1-4.5-11.1-10.2-11.1zM140.9 103.9c-5.7 0-10.2 5-10.2 11.1s4.6 11.1 10.2 11.1c5.7 0 10.2-5 10.2-11.1s-4.5-11.1-10.2-11.1z"
     id="path5" />
  <path
     class="st0"
     d="M 246.28814,-0.40677935 -0.54237313,0.10169522 0.09745788,21.977966 l 0,220.074574 34.44491512,-0.49661 154.276267,0 6.13814,-0.56356 7.14577,0.26356 15.29576,-0.2305 29.26695,0.26271 -1.01695,-219.310174 z M 163.54745,179.01187 c 0,0 -5.15593,-6.15848 -9.45254,-11.60086 18.76187,-5.29914 25.92288,-17.04321 25.92288,-17.04321 -5.87203,3.86694 -11.45762,6.58814 -16.47034,8.45 -7.16101,3.00762 -14.03559,5.01271 -20.76694,6.15848 -13.74915,2.57796 -26.35254,1.86186 -37.09407,-0.14323 -8.163559,-1.57543 -15.181356,-3.86695 -21.053389,-6.15847 -3.294068,-1.28898 -6.874577,-2.86441 -10.455086,-4.8695 -0.429661,-0.28644 -0.859321,-0.42966 -1.288982,-0.7161 -0.286441,-0.14322 -0.429661,-0.28644 -0.572882,-0.42966 -2.577966,-1.4322 -4.01017,-2.43474 -4.01017,-2.43474 0,0 6.874577,11.45763 25.06356,16.9 -4.29661,5.44236 -9.595762,11.88729 -9.595762,11.88729 -31.651696,-1.00255 -43.682204,-21.7695 -43.682204,-21.7695 0,-46.11695 20.623729,-83.497454 20.623729,-83.497454 C 81.338983,58.277119 100.96017,58.70678 100.96017,58.70678 l 1.43221,1.718645 c -25.779669,7.447457 -37.666956,18.761864 -37.666956,18.761864 0,0 3.150847,-1.718645 8.45,-4.153391 15.324575,-6.731355 27.498306,-8.59322 32.511016,-9.02288 0.85932,-0.143221 1.57542,-0.286441 2.43474,-0.286441 8.73645,-1.145763 18.61865,-1.432204 28.93052,-0.286441 13.60593,1.575423 28.2144,5.585593 43.10932,13.749153 0,0 -11.31441,-10.741526 -35.66187,-18.188984 l 2.00509,-2.291525 c 0,0 19.62118,-0.429661 40.24491,15.038136 0,0 20.62373,37.380504 20.62373,83.497454 0,0 -12.17373,20.76695 -43.82543,21.7695 z"
     id="path7"
     inkscape:connector-curvature="0"
     style="fill:#7289da"
     sodipodi:nodetypes="cccccccccccccccccccccccccccccccccccccccc" />
</svg>
