<?xml version="1.0" encoding="UTF-8" ?>
<!DOCTYPE svg PUBLIC "-//W3C//DTD SVG 1.1//EN" "http://www.w3.org/Graphics/SVG/1.1/DTD/svg11.dtd">
<svg width="512pt" height="512pt" viewBox="0 0 512 512" version="1.1" xmlns="http://www.w3.org/2000/svg">
<g id="#3c5b9bff">
<path fill="#3c5b9b" opacity="1.00" d=" M 0.00 0.00 L 512.00 0.00 L 512.00 512.00 L 0.00 512.00 L 0.00 0.00 M 267.42 106.64 C 255.86 108.23 244.42 112.71 235.88 120.85 C 224.39 131.67 218.94 147.54 217.87 162.99 C 217.36 176.52 217.98 190.07 217.61 203.61 C 207.36 204.04 197.09 203.22 186.85 203.92 C 186.34 208.94 186.62 213.98 186.60 219.01 C 186.78 231.06 186.22 243.13 186.85 255.17 C 196.84 255.89 206.87 255.13 216.88 255.43 C 217.87 260.23 217.34 265.14 217.40 270.00 C 217.41 315.24 217.40 360.49 217.40 405.74 C 226.91 406.48 236.47 405.84 246.00 406.05 C 257.54 405.84 269.11 406.45 280.63 405.76 C 280.71 357.18 280.65 308.58 280.66 259.99 C 280.72 258.70 280.81 257.42 280.92 256.14 C 294.24 255.64 307.59 256.25 320.93 255.93 C 321.68 254.08 322.00 252.09 322.16 250.11 C 322.97 240.33 323.82 230.56 324.85 220.80 C 325.44 214.93 326.46 209.06 326.16 203.13 C 310.78 202.70 295.36 203.37 279.98 202.86 C 279.42 196.25 279.88 189.62 279.72 183.00 C 279.67 176.39 279.68 169.21 283.60 163.55 C 286.50 159.18 291.85 157.19 296.93 157.08 C 306.89 156.77 316.88 157.41 326.84 156.87 C 327.04 139.96 327.05 123.03 326.84 106.13 C 316.24 105.67 305.61 106.10 295.00 105.96 C 285.81 106.06 276.58 105.57 267.42 106.64 Z" />
</g>
<g id="#ffffffff">
<path fill="#ffffff" opacity="1.00" d=" M 267.42 106.64 C 276.58 105.57 285.81 106.06 295.00 105.96 C 305.61 106.10 316.24 105.67 326.84 106.13 C 327.05 123.03 327.04 139.96 326.84 156.87 C 316.88 157.41 306.89 156.77 296.93 157.08 C 291.85 157.19 286.50 159.18 283.60 163.55 C 279.68 169.21 279.67 176.39 279.72 183.00 C 279.88 189.62 279.42 196.25 279.98 202.86 C 295.36 203.37 310.78 202.70 326.16 203.13 C 326.46 209.06 325.44 214.93 324.85 220.80 C 323.82 230.56 322.97 240.33 322.16 250.11 C 322.00 252.09 321.68 254.08 320.93 255.93 C 307.59 256.25 294.24 255.64 280.92 256.14 C 280.81 257.42 280.72 258.70 280.66 259.99 C 280.65 308.58 280.71 357.18 280.63 405.76 C 269.11 406.45 257.54 405.84 246.00 406.05 C 236.47 405.84 226.91 406.48 217.40 405.74 C 217.40 360.49 217.41 315.24 217.40 270.00 C 217.34 265.14 217.87 260.23 216.88 255.43 C 206.87 255.13 196.84 255.89 186.85 255.17 C 186.22 243.13 186.78 231.06 186.60 219.01 C 186.62 213.98 186.34 208.94 186.85 203.92 C 197.09 203.22 207.36 204.04 217.61 203.61 C 217.98 190.07 217.36 176.52 217.87 162.99 C 218.94 147.54 224.39 131.67 235.88 120.85 C 244.42 112.71 255.86 108.23 267.42 106.64 Z" />
</g>
</svg>
