<?xml version="1.0" encoding="UTF-8" ?>
<!DOCTYPE svg PUBLIC "-//W3C//DTD SVG 1.1//EN" "http://www.w3.org/Graphics/SVG/1.1/DTD/svg11.dtd">
<svg width="512pt" height="512pt" viewBox="0 0 512 512" version="1.1" xmlns="http://www.w3.org/2000/svg">
<g id="#d44132ff">
<path fill="#d44132" opacity="1.00" d=" M 0.00 0.00 L 512.00 0.00 L 512.00 512.00 L 0.00 512.00 L 0.00 0.00 M 183.57 123.55 C 167.66 126.20 151.76 131.73 139.36 142.35 C 128.40 151.42 121.42 164.90 119.96 179.03 C 118.54 193.87 119.91 209.88 128.48 222.55 C 136.88 234.94 151.36 241.80 165.81 244.10 C 172.31 245.28 178.94 244.80 185.48 245.39 C 186.01 251.19 184.89 257.07 185.93 262.83 C 187.03 265.31 189.49 266.81 191.27 268.77 C 193.93 271.18 195.15 274.69 195.85 278.12 C 190.04 279.45 184.02 278.90 178.13 279.51 C 161.82 280.92 145.36 284.23 130.72 291.82 C 120.73 296.93 111.93 305.00 107.41 315.41 C 102.35 327.28 102.48 341.09 106.78 353.16 C 111.25 365.64 121.72 375.11 133.60 380.49 C 152.71 389.23 174.30 390.87 195.02 389.20 C 213.42 387.41 232.24 382.56 247.09 371.08 C 257.28 363.34 264.75 352.10 267.64 339.61 C 270.98 325.87 270.73 310.71 263.93 298.02 C 256.88 284.37 244.40 274.80 232.78 265.23 C 228.15 261.28 223.08 257.44 220.15 251.98 C 218.00 248.02 218.94 243.05 221.62 239.60 C 226.50 233.15 233.47 228.78 239.31 223.30 C 246.34 216.98 252.25 209.10 254.96 199.94 C 257.87 190.90 257.31 181.28 256.98 171.93 C 256.46 162.39 254.88 152.13 248.32 144.71 C 245.09 140.72 240.32 138.63 236.29 135.64 C 236.29 135.31 236.29 134.65 236.29 134.32 C 243.43 131.21 251.46 131.78 258.95 130.01 C 263.41 129.13 268.83 127.52 270.02 122.48 C 251.35 122.14 232.67 122.45 214.00 122.35 C 203.85 122.52 193.61 121.67 183.57 123.55 M 343.22 122.50 C 342.24 128.62 342.93 134.84 342.78 141.00 C 342.62 151.99 343.08 163.00 342.63 173.98 C 336.80 174.96 330.87 174.29 325.00 174.43 C 313.77 174.56 302.52 174.24 291.30 174.51 C 290.53 179.45 290.52 184.55 291.30 189.49 C 302.52 189.80 313.77 189.45 325.00 189.58 C 330.87 189.73 336.80 189.06 342.62 190.02 C 343.11 200.67 342.62 211.34 342.80 222.00 C 342.97 228.48 342.24 235.04 343.26 241.48 C 348.03 241.83 352.84 241.84 357.61 241.47 C 358.45 224.33 357.25 207.09 358.15 189.94 C 364.73 189.09 371.39 189.75 378.00 189.58 C 388.54 189.43 399.10 189.82 409.64 189.48 C 410.34 184.54 410.34 179.46 409.63 174.52 C 398.43 174.22 387.21 174.57 376.00 174.43 C 370.05 174.30 364.06 174.89 358.14 174.06 C 357.27 156.91 358.46 139.66 357.63 122.50 C 352.84 122.12 348.01 122.14 343.22 122.50 Z" />
<path fill="#d44132" opacity="1.00" d=" M 178.44 135.58 C 186.87 134.47 195.25 138.05 201.74 143.25 C 212.25 151.69 218.80 164.25 221.73 177.26 C 224.57 189.70 223.74 203.30 217.74 214.72 C 213.90 222.05 207.15 228.17 198.91 229.92 C 190.33 231.81 181.38 228.66 174.58 223.43 C 162.63 214.28 155.47 199.99 152.80 185.40 C 151.25 174.44 151.76 162.78 156.70 152.68 C 160.76 144.05 168.72 136.78 178.44 135.58 Z" />
<path fill="#d44132" opacity="1.00" d=" M 180.39 290.48 C 196.75 287.94 214.36 290.50 228.40 299.61 C 237.50 305.48 244.84 315.03 245.78 326.07 C 246.79 335.93 242.36 345.62 235.64 352.63 C 225.36 363.49 210.71 369.41 196.03 371.02 C 180.25 372.78 163.47 369.89 150.29 360.70 C 141.82 354.75 134.85 345.62 134.05 335.03 C 133.07 325.60 137.03 316.23 143.31 309.34 C 152.81 298.76 166.51 292.70 180.39 290.48 Z" />
</g>
<g id="#ffffffff">
<path fill="#ffffff" opacity="1.00" d=" M 183.57 123.55 C 193.61 121.67 203.85 122.52 214.00 122.35 C 232.67 122.45 251.35 122.14 270.02 122.48 C 268.83 127.52 263.41 129.13 258.95 130.01 C 251.46 131.78 243.43 131.21 236.29 134.32 C 236.29 134.65 236.29 135.31 236.29 135.64 C 240.32 138.63 245.09 140.72 248.32 144.71 C 254.88 152.13 256.46 162.39 256.98 171.93 C 257.31 181.28 257.87 190.90 254.96 199.94 C 252.25 209.10 246.34 216.98 239.31 223.30 C 233.47 228.78 226.50 233.15 221.62 239.60 C 218.94 243.05 218.00 248.02 220.15 251.98 C 223.08 257.44 228.15 261.28 232.78 265.23 C 244.40 274.80 256.88 284.37 263.93 298.02 C 270.73 310.71 270.98 325.87 267.64 339.61 C 264.75 352.10 257.28 363.34 247.09 371.08 C 232.24 382.56 213.42 387.41 195.02 389.20 C 174.30 390.87 152.71 389.23 133.60 380.49 C 121.72 375.11 111.25 365.64 106.78 353.16 C 102.48 341.09 102.35 327.28 107.41 315.41 C 111.93 305.00 120.73 296.93 130.72 291.82 C 145.36 284.23 161.82 280.92 178.13 279.51 C 184.02 278.90 190.04 279.45 195.85 278.12 C 195.15 274.69 193.93 271.18 191.27 268.77 C 189.49 266.81 187.03 265.31 185.93 262.83 C 184.89 257.07 186.01 251.19 185.48 245.39 C 178.94 244.80 172.31 245.28 165.81 244.10 C 151.36 241.80 136.88 234.94 128.48 222.55 C 119.91 209.88 118.54 193.87 119.96 179.03 C 121.42 164.90 128.40 151.42 139.36 142.35 C 151.76 131.73 167.66 126.20 183.57 123.55 M 178.44 135.58 C 168.72 136.78 160.76 144.05 156.70 152.68 C 151.76 162.78 151.25 174.44 152.80 185.40 C 155.47 199.99 162.63 214.28 174.58 223.43 C 181.38 228.66 190.33 231.81 198.91 229.92 C 207.15 228.17 213.90 222.05 217.74 214.72 C 223.74 203.30 224.57 189.70 221.73 177.26 C 218.80 164.25 212.25 151.69 201.74 143.25 C 195.25 138.05 186.87 134.47 178.44 135.58 M 180.39 290.48 C 166.51 292.70 152.81 298.76 143.31 309.34 C 137.03 316.23 133.07 325.60 134.05 335.03 C 134.85 345.62 141.82 354.75 150.29 360.70 C 163.47 369.89 180.25 372.78 196.03 371.02 C 210.71 369.41 225.36 363.49 235.64 352.63 C 242.36 345.62 246.79 335.93 245.78 326.07 C 244.84 315.03 237.50 305.48 228.40 299.61 C 214.36 290.50 196.75 287.94 180.39 290.48 Z" />
<path fill="#ffffff" opacity="1.00" d=" M 343.22 122.50 C 348.01 122.14 352.84 122.12 357.63 122.50 C 358.46 139.66 357.27 156.91 358.14 174.06 C 364.06 174.89 370.05 174.30 376.00 174.43 C 387.21 174.57 398.43 174.22 409.63 174.52 C 410.34 179.46 410.34 184.54 409.64 189.48 C 399.10 189.82 388.54 189.43 378.00 189.58 C 371.39 189.75 364.73 189.09 358.15 189.94 C 357.25 207.09 358.45 224.33 357.61 241.47 C 352.84 241.84 348.03 241.83 343.26 241.48 C 342.24 235.04 342.97 228.48 342.80 222.00 C 342.62 211.34 343.11 200.67 342.62 190.02 C 336.80 189.06 330.87 189.73 325.00 189.58 C 313.77 189.45 302.52 189.80 291.30 189.49 C 290.52 184.55 290.53 179.45 291.30 174.51 C 302.52 174.24 313.77 174.56 325.00 174.43 C 330.87 174.29 336.80 174.96 342.63 173.98 C 343.08 163.00 342.62 151.99 342.78 141.00 C 342.93 134.84 342.24 128.62 343.22 122.50 Z" />
</g>
</svg>
