<?xml version="1.0" encoding="UTF-8" ?>
<!DOCTYPE svg PUBLIC "-//W3C//DTD SVG 1.1//EN" "http://www.w3.org/Graphics/SVG/1.1/DTD/svg11.dtd">
<svg width="96pt" height="96pt" viewBox="0 0 96 96" version="1.1" xmlns="http://www.w3.org/2000/svg">
<g id="#166336ff">
<path fill="#166336" opacity="1.00" d=" M 0.00 0.00 L 4.00 0.00 C 3.97 22.01 4.08 44.02 3.92 66.03 C 3.94 67.91 4.03 69.80 4.34 71.66 C 7.53 72.18 10.78 72.10 14.00 72.07 C 28.00 71.84 42.00 72.19 56.00 71.88 C 58.56 71.91 61.18 71.80 63.66 72.51 C 66.14 73.41 68.06 75.32 70.02 77.00 C 76.99 83.49 84.70 89.16 91.35 96.00 L 0.00 96.00 L 0.00 0.00 Z" />
<path fill="#166336" opacity="1.00" d=" M 92.01 0.00 L 96.00 0.00 L 96.00 96.00 L 92.18 96.00 C 91.77 64.01 92.11 32.00 92.01 0.00 Z" />
</g>
<g id="#27ae60ff">
<path fill="#27ae60" opacity="1.00" d=" M 4.00 0.00 L 92.01 0.00 C 92.11 32.00 91.77 64.01 92.18 96.00 L 91.35 96.00 C 84.70 89.16 76.99 83.49 70.02 77.00 C 68.06 75.32 66.14 73.41 63.66 72.51 C 61.18 71.80 58.56 71.91 56.00 71.88 C 42.00 72.19 28.00 71.84 14.00 72.07 C 10.78 72.10 7.53 72.18 4.34 71.66 C 4.03 69.80 3.94 67.91 3.92 66.03 C 4.08 44.02 3.97 22.01 4.00 0.00 M 45.38 16.47 C 39.66 18.09 38.25 26.53 42.86 30.11 C 47.29 34.10 55.65 31.12 55.83 24.92 C 56.87 19.22 50.68 14.51 45.38 16.47 M 24.35 28.35 C 20.18 29.35 18.68 35.27 21.84 38.16 C 24.94 41.60 31.43 39.50 31.80 34.84 C 32.60 30.77 28.27 27.05 24.35 28.35 M 68.35 28.35 C 64.18 29.34 62.68 35.27 65.84 38.15 C 68.93 41.59 75.43 39.49 75.80 34.84 C 76.60 30.76 72.27 27.06 68.35 28.35 M 34.08 45.09 C 32.27 46.79 31.99 49.37 32.05 51.72 C 36.69 52.18 41.35 51.88 46.00 51.93 C 51.98 51.86 57.99 52.46 63.95 51.71 C 64.82 45.85 59.21 41.95 54.19 40.78 C 47.37 39.33 39.23 39.85 34.08 45.09 M 15.98 51.70 C 19.85 52.21 23.81 52.35 27.67 51.66 C 28.24 49.48 28.64 47.24 28.66 44.98 C 23.80 44.17 16.19 45.53 15.98 51.70 M 67.33 44.89 C 67.38 47.17 67.74 49.45 68.32 51.67 C 72.18 52.35 76.15 52.22 80.03 51.70 C 79.92 45.50 72.32 43.52 67.33 44.89 Z" />
</g>
<g id="#ffffffff">
<path fill="#ffffff" opacity="1.00" d=" M 45.38 16.47 C 50.68 14.51 56.87 19.22 55.83 24.92 C 55.65 31.12 47.29 34.10 42.86 30.11 C 38.25 26.53 39.66 18.09 45.38 16.47 Z" />
<path fill="#ffffff" opacity="1.00" d=" M 24.35 28.35 C 28.27 27.05 32.60 30.77 31.80 34.84 C 31.43 39.50 24.94 41.60 21.84 38.16 C 18.68 35.27 20.18 29.35 24.35 28.35 Z" />
<path fill="#ffffff" opacity="1.00" d=" M 68.35 28.35 C 72.27 27.06 76.60 30.76 75.80 34.84 C 75.43 39.49 68.93 41.59 65.84 38.15 C 62.68 35.27 64.18 29.34 68.35 28.35 Z" />
<path fill="#ffffff" opacity="1.00" d=" M 34.08 45.09 C 39.23 39.85 47.37 39.33 54.19 40.78 C 59.21 41.95 64.82 45.85 63.95 51.71 C 57.99 52.46 51.98 51.86 46.00 51.93 C 41.35 51.88 36.69 52.18 32.05 51.72 C 31.99 49.37 32.27 46.79 34.08 45.09 Z" />
<path fill="#ffffff" opacity="1.00" d=" M 15.98 51.70 C 16.19 45.53 23.80 44.17 28.66 44.98 C 28.64 47.24 28.24 49.48 27.67 51.66 C 23.81 52.35 19.85 52.21 15.98 51.70 Z" />
<path fill="#ffffff" opacity="1.00" d=" M 67.33 44.89 C 72.32 43.52 79.92 45.50 80.03 51.70 C 76.15 52.22 72.18 52.35 68.32 51.67 C 67.74 49.45 67.38 47.17 67.33 44.89 Z" />
</g>
</svg>
