<?xml version="1.0" encoding="UTF-8" ?>
<!DOCTYPE svg PUBLIC "-//W3C//DTD SVG 1.1//EN" "http://www.w3.org/Graphics/SVG/1.1/DTD/svg11.dtd">
<svg width="512pt" height="512pt" viewBox="0 0 512 512" version="1.1" xmlns="http://www.w3.org/2000/svg">
<g id="#fd9f13ff">
<path fill="#fd9f13" opacity="1.00" d=" M 0.00 0.00 L 512.00 0.00 L 512.00 512.00 L 0.00 512.00 L 0.00 0.00 M 122.47 122.32 C 121.90 129.20 122.51 136.11 122.33 143.00 C 122.51 153.28 122.04 163.58 122.49 173.84 C 126.91 174.46 131.40 174.41 135.86 174.54 C 170.82 176.75 205.24 187.54 235.06 205.95 C 252.40 216.74 268.52 229.63 282.21 244.83 C 306.73 271.71 324.36 304.81 332.85 340.20 C 336.99 356.82 338.69 373.95 339.06 391.04 C 349.34 391.92 359.69 391.13 370.00 391.38 C 376.69 391.21 383.41 391.84 390.07 391.05 C 390.39 389.04 390.48 387.02 390.49 385.00 C 389.38 333.53 373.06 282.51 344.01 240.01 C 309.89 189.05 257.70 150.49 198.88 133.07 C 174.13 125.85 148.29 121.55 122.47 122.32 M 122.94 214.02 C 122.18 219.64 122.69 225.34 122.60 231.00 C 122.87 242.31 122.05 253.67 122.94 264.94 C 126.11 265.52 129.34 265.45 132.53 265.73 C 163.78 268.10 193.83 282.92 214.81 306.18 C 233.27 326.18 244.77 352.36 247.29 379.44 C 247.62 383.28 247.46 387.16 248.04 390.97 C 258.66 391.77 269.35 391.04 280.00 391.28 C 286.33 391.15 292.70 391.71 299.01 390.97 C 299.95 380.71 298.38 370.37 296.73 360.26 C 291.23 329.07 277.21 299.44 256.51 275.48 C 232.71 247.48 199.85 227.52 164.27 218.56 C 150.75 215.55 136.83 212.92 122.94 214.02 M 150.40 320.50 C 142.47 322.24 135.23 326.82 130.18 333.16 C 121.02 344.35 119.93 361.28 127.40 373.63 C 133.21 383.74 144.35 390.43 155.96 391.12 C 168.99 392.03 182.25 385.20 188.87 373.90 C 195.57 362.91 195.64 348.07 188.92 337.07 C 181.42 324.02 165.03 317.03 150.40 320.50 Z" />
</g>
<g id="#ffffffff">
<path fill="#ffffff" opacity="1.00" d=" M 122.47 122.32 C 148.29 121.55 174.13 125.85 198.88 133.07 C 257.70 150.49 309.89 189.05 344.01 240.01 C 373.06 282.51 389.38 333.53 390.49 385.00 C 390.48 387.02 390.39 389.04 390.07 391.05 C 383.41 391.84 376.69 391.21 370.00 391.38 C 359.69 391.13 349.34 391.92 339.06 391.04 C 338.69 373.95 336.99 356.82 332.85 340.20 C 324.36 304.81 306.73 271.71 282.21 244.83 C 268.52 229.63 252.40 216.74 235.06 205.95 C 205.24 187.54 170.82 176.75 135.86 174.54 C 131.40 174.41 126.91 174.46 122.49 173.84 C 122.04 163.58 122.51 153.28 122.33 143.00 C 122.51 136.11 121.90 129.20 122.47 122.32 Z" />
<path fill="#ffffff" opacity="1.00" d=" M 122.94 214.02 C 136.83 212.92 150.75 215.55 164.27 218.56 C 199.85 227.52 232.71 247.48 256.51 275.48 C 277.21 299.44 291.23 329.07 296.73 360.26 C 298.38 370.37 299.95 380.71 299.01 390.97 C 292.70 391.71 286.33 391.15 280.00 391.28 C 269.35 391.04 258.66 391.77 248.04 390.97 C 247.46 387.16 247.62 383.28 247.29 379.44 C 244.77 352.36 233.27 326.18 214.81 306.18 C 193.83 282.92 163.78 268.10 132.53 265.73 C 129.34 265.45 126.11 265.52 122.94 264.94 C 122.05 253.67 122.87 242.31 122.60 231.00 C 122.69 225.34 122.18 219.64 122.94 214.02 Z" />
<path fill="#ffffff" opacity="1.00" d=" M 150.40 320.50 C 165.03 317.03 181.42 324.02 188.92 337.07 C 195.64 348.07 195.57 362.91 188.87 373.90 C 182.25 385.20 168.99 392.03 155.96 391.12 C 144.35 390.43 133.21 383.74 127.40 373.63 C 119.93 361.28 121.02 344.35 130.18 333.16 C 135.23 326.82 142.47 322.24 150.40 320.50 Z" />
</g>
</svg>
