<?xml version="1.0" encoding="UTF-8" ?>
<!DOCTYPE svg PUBLIC "-//W3C//DTD SVG 1.1//EN" "http://www.w3.org/Graphics/SVG/1.1/DTD/svg11.dtd">
<svg width="512pt" height="512pt" viewBox="0 0 512 512" version="1.1" xmlns="http://www.w3.org/2000/svg">
<g id="#59554fff">
<path fill="#59554f" opacity="1.00" d=" M 0.00 0.00 L 512.00 0.00 L 512.00 512.00 L 0.00 512.00 L 0.00 0.00 M 344.30 194.33 C 332.25 199.43 322.81 210.96 321.21 224.08 C 320.79 226.78 320.81 229.76 319.01 232.01 C 313.18 240.18 307.43 248.42 301.67 256.64 C 300.01 258.92 298.68 261.51 296.56 263.41 C 292.22 263.90 287.71 263.83 283.64 265.69 C 281.50 266.30 279.28 268.00 277.01 266.99 C 245.00 253.94 212.86 241.22 180.84 228.20 C 177.58 226.82 174.09 225.87 171.08 223.98 C 169.26 221.55 168.83 218.35 167.24 215.78 C 161.02 204.60 146.80 198.99 134.58 202.62 C 121.21 206.17 111.80 220.32 113.92 234.03 C 115.56 248.03 128.86 259.56 143.01 258.85 C 148.00 259.09 152.49 256.77 157.12 255.35 C 160.17 255.59 162.88 257.25 165.72 258.29 C 198.34 271.34 230.97 284.39 263.61 297.42 C 267.11 298.47 266.96 302.80 268.56 305.51 C 274.62 318.58 291.63 323.83 304.59 318.50 C 312.35 315.08 318.84 308.33 320.95 299.99 C 321.65 297.84 321.73 295.17 323.83 293.82 C 334.36 286.00 345.08 278.43 355.56 270.54 C 359.52 267.24 365.06 268.43 369.66 266.74 C 385.74 262.45 398.37 246.80 397.97 229.98 C 398.20 220.22 394.19 210.55 387.44 203.55 C 376.72 192.07 358.77 188.21 344.30 194.33 Z" />
<path fill="#59554f" opacity="1.00" d=" M 353.39 204.57 C 361.97 202.94 371.28 205.24 377.61 211.39 C 386.08 219.22 387.91 233.04 381.89 242.86 C 376.25 252.60 363.87 257.73 352.98 255.02 C 342.12 252.39 333.74 242.17 333.27 231.03 C 332.57 218.94 341.49 207.05 353.39 204.57 M 354.36 209.55 C 345.13 211.45 338.06 220.58 338.55 230.01 C 338.33 239.50 345.71 248.41 355.05 250.00 C 367.12 252.41 380.26 242.55 380.36 230.01 C 380.69 216.96 366.90 206.52 354.36 209.55 Z" />
<path fill="#59554f" opacity="1.00" d=" M 121.25 231.03 C 120.53 220.34 129.42 210.15 140.06 209.20 C 148.30 208.31 157.03 212.49 160.91 219.93 C 155.24 218.46 150.05 214.83 144.00 215.09 C 137.16 215.32 131.01 220.30 128.83 226.69 C 126.94 233.31 129.08 241.15 134.73 245.29 C 138.19 247.86 142.70 248.38 146.12 251.00 C 133.99 253.73 121.35 243.34 121.25 231.03 Z" />
<path fill="#59554f" opacity="1.00" d=" M 290.03 271.34 C 295.09 270.83 300.44 271.33 304.72 274.30 C 310.78 277.95 314.35 285.01 314.43 291.99 C 314.75 300.59 309.20 309.25 300.90 311.93 C 292.01 315.12 280.05 312.01 275.83 303.01 C 280.94 304.48 285.52 307.88 290.99 307.89 C 297.74 308.36 303.82 303.45 306.60 297.60 C 309.09 291.17 307.53 283.27 302.64 278.37 C 299.38 275.13 294.65 274.43 290.69 272.45 C 290.53 272.17 290.20 271.62 290.03 271.34 Z" />
</g>
<g id="#ffffffff">
<path fill="#ffffff" opacity="1.00" d=" M 344.30 194.33 C 358.77 188.21 376.72 192.07 387.44 203.55 C 394.19 210.55 398.20 220.22 397.97 229.98 C 398.37 246.80 385.74 262.45 369.66 266.74 C 365.06 268.43 359.52 267.24 355.56 270.54 C 345.08 278.43 334.36 286.00 323.83 293.82 C 321.73 295.17 321.65 297.84 320.95 299.99 C 318.84 308.33 312.35 315.08 304.59 318.50 C 291.63 323.83 274.62 318.58 268.56 305.51 C 266.96 302.80 267.11 298.47 263.61 297.42 C 230.97 284.39 198.34 271.34 165.72 258.29 C 162.88 257.25 160.17 255.59 157.12 255.35 C 152.49 256.77 148.00 259.09 143.01 258.85 C 128.86 259.56 115.56 248.03 113.92 234.03 C 111.80 220.32 121.21 206.17 134.58 202.62 C 146.80 198.99 161.02 204.60 167.24 215.78 C 168.83 218.35 169.26 221.55 171.08 223.98 C 174.09 225.87 177.58 226.82 180.84 228.20 C 212.86 241.22 245.00 253.94 277.01 266.99 C 279.28 268.00 281.50 266.30 283.64 265.69 C 287.71 263.83 292.22 263.90 296.56 263.41 C 298.68 261.51 300.01 258.92 301.67 256.64 C 307.43 248.42 313.18 240.18 319.01 232.01 C 320.81 229.76 320.79 226.78 321.21 224.08 C 322.81 210.96 332.25 199.43 344.30 194.33 M 353.39 204.57 C 341.49 207.05 332.57 218.94 333.27 231.03 C 333.74 242.17 342.12 252.39 352.98 255.02 C 363.87 257.73 376.25 252.60 381.89 242.86 C 387.91 233.04 386.08 219.22 377.61 211.39 C 371.28 205.24 361.97 202.94 353.39 204.57 M 121.25 231.03 C 121.35 243.34 133.99 253.73 146.12 251.00 C 142.70 248.38 138.19 247.86 134.73 245.29 C 129.08 241.15 126.94 233.31 128.83 226.69 C 131.01 220.30 137.16 215.32 144.00 215.09 C 150.05 214.83 155.24 218.46 160.91 219.93 C 157.03 212.49 148.30 208.31 140.06 209.20 C 129.42 210.15 120.53 220.34 121.25 231.03 M 290.03 271.34 C 290.20 271.62 290.53 272.17 290.69 272.45 C 294.65 274.43 299.38 275.13 302.64 278.37 C 307.53 283.27 309.09 291.17 306.60 297.60 C 303.82 303.45 297.74 308.36 290.99 307.89 C 285.52 307.88 280.94 304.48 275.83 303.01 C 280.05 312.01 292.01 315.12 300.90 311.93 C 309.20 309.25 314.75 300.59 314.43 291.99 C 314.35 285.01 310.78 277.95 304.72 274.30 C 300.44 271.33 295.09 270.83 290.03 271.34 Z" />
<path fill="#ffffff" opacity="1.00" d=" M 354.36 209.55 C 366.90 206.52 380.69 216.96 380.36 230.01 C 380.26 242.55 367.12 252.41 355.05 250.00 C 345.71 248.41 338.33 239.50 338.55 230.01 C 338.06 220.58 345.13 211.45 354.36 209.55 Z" />
</g>
</svg>
