<?xml version="1.0" encoding="UTF-8" ?>
<!DOCTYPE svg PUBLIC "-//W3C//DTD SVG 1.1//EN" "http://www.w3.org/Graphics/SVG/1.1/DTD/svg11.dtd">
<svg width="400pt" height="400pt" viewBox="0 0 400 400" version="1.1" xmlns="http://www.w3.org/2000/svg">
<g id="#0340a8ff">
<path fill="#0340a8" opacity="1.00" d=" M 0.00 0.00 L 400.00 0.00 L 400.00 400.00 L 0.00 400.00 L 0.00 0.00 M 113.23 60.03 C 107.35 61.46 101.16 63.33 96.91 67.91 C 91.02 73.70 90.36 82.46 88.90 90.14 C 85.84 103.86 83.18 117.68 79.57 131.27 C 78.98 133.38 78.86 135.71 77.68 137.61 C 71.34 141.74 64.15 145.20 59.68 151.57 C 57.43 155.03 55.22 158.53 53.20 162.13 C 48.06 172.62 48.18 185.21 52.14 196.06 C 55.42 205.73 63.16 213.13 71.59 218.48 C 80.79 224.22 92.12 225.61 102.70 223.94 C 115.46 221.17 127.58 213.32 133.58 201.46 C 138.18 192.46 140.66 181.89 138.37 171.87 C 135.68 159.62 129.01 147.41 117.45 141.55 C 117.34 118.70 117.46 95.85 117.39 73.00 C 117.33 69.58 117.34 66.16 117.63 62.76 C 125.69 60.68 133.96 59.70 142.17 58.48 C 150.68 56.74 159.39 57.78 168.00 57.47 C 175.33 57.14 182.43 59.30 189.72 59.66 C 209.14 62.36 228.50 67.15 246.14 75.90 C 254.91 80.05 263.65 84.56 271.17 90.75 C 279.43 96.35 287.14 102.76 293.99 110.02 C 297.65 114.01 301.98 117.36 305.27 121.69 C 310.77 129.05 316.68 136.28 320.32 144.81 C 322.59 150.26 325.19 155.59 326.94 161.25 C 331.90 176.96 333.29 193.63 332.12 210.01 C 331.38 217.67 329.78 225.20 328.51 232.78 C 326.00 244.39 319.15 254.33 313.52 264.59 C 309.05 271.57 304.18 278.43 297.92 283.93 C 292.74 288.76 288.30 294.36 282.66 298.68 C 276.81 303.67 270.19 307.62 263.65 311.61 C 252.25 317.95 240.47 323.71 228.09 327.88 C 206.94 333.95 185.15 339.15 163.00 338.47 C 141.66 339.00 120.40 335.22 100.02 329.08 C 96.21 327.48 91.76 330.27 90.03 333.68 C 94.91 336.39 100.45 337.40 105.73 339.04 C 115.23 341.88 124.85 344.38 134.63 346.07 C 142.73 347.20 150.76 349.12 158.99 348.67 C 191.65 350.08 224.87 345.21 254.94 332.08 C 263.62 328.10 272.78 325.02 280.88 319.86 C 283.90 317.95 286.62 315.61 289.68 313.76 C 292.16 312.24 294.83 310.96 296.96 308.93 C 302.04 303.59 308.86 300.32 313.56 294.56 C 319.45 289.60 323.03 282.73 327.90 276.89 C 338.75 261.42 346.89 243.89 350.59 225.30 C 351.74 219.25 353.23 213.21 353.20 207.00 C 353.13 197.22 353.58 187.35 352.09 177.65 C 349.83 168.20 347.57 158.57 343.10 149.89 C 340.71 145.79 339.05 141.31 336.69 137.21 C 331.96 130.08 327.61 122.59 321.55 116.48 C 315.60 110.76 309.85 104.84 303.98 99.05 C 285.70 82.87 264.13 70.33 240.85 62.91 C 222.51 56.55 203.15 54.18 183.96 51.99 C 160.12 50.06 136.29 54.25 113.23 60.03 M 146.63 71.62 C 146.09 73.24 147.95 74.10 148.81 75.16 C 154.81 80.51 160.27 86.41 166.04 91.99 C 169.96 95.79 173.05 100.33 176.04 104.87 C 185.12 117.29 191.24 131.69 195.36 146.45 C 197.04 152.11 197.21 158.10 196.62 163.94 C 195.98 168.86 192.11 172.47 190.55 177.04 C 190.30 179.04 191.80 180.62 192.80 182.18 C 197.59 188.41 202.04 194.89 206.85 201.11 C 210.82 206.31 213.58 212.30 217.32 217.66 C 218.72 219.69 220.24 222.24 219.01 224.75 C 216.99 230.08 211.04 231.92 206.03 233.24 C 202.87 234.21 198.80 235.46 197.77 239.00 C 198.43 243.30 202.27 246.54 202.42 250.98 C 201.82 253.46 199.36 254.97 198.14 257.17 C 198.17 259.50 199.14 261.69 199.41 263.99 C 199.19 267.44 195.74 269.31 194.48 272.27 C 193.73 276.74 195.58 281.18 194.93 285.66 C 194.60 290.76 192.62 295.56 192.15 300.64 C 195.75 300.68 199.39 300.57 202.89 299.64 C 215.04 296.65 226.86 292.35 238.21 287.11 C 248.44 281.68 258.34 275.57 267.42 268.36 C 273.72 263.01 279.01 256.65 284.49 250.52 C 288.13 247.58 290.25 243.44 292.51 239.45 C 301.38 227.40 305.70 212.57 307.49 197.87 C 308.08 184.94 308.22 171.39 302.90 159.31 C 298.24 147.33 293.28 135.10 284.69 125.33 C 267.08 103.68 242.21 88.95 215.93 80.30 C 203.33 76.45 190.35 73.69 177.18 72.86 C 167.08 71.22 156.82 71.08 146.63 71.62 M 127.42 75.10 C 127.58 96.91 127.25 118.74 127.58 140.54 C 132.52 144.86 137.43 149.24 142.00 154.00 C 147.85 159.02 151.91 165.68 155.47 172.43 C 159.90 180.70 163.04 189.71 164.27 199.02 C 165.19 206.33 166.86 213.59 166.47 221.01 C 167.27 239.27 162.07 257.39 153.66 273.48 C 151.04 279.80 147.08 285.46 142.53 290.54 C 139.59 293.77 136.14 296.53 133.49 300.03 C 138.48 301.88 143.87 301.93 149.06 302.90 C 158.34 303.74 168.27 304.27 176.86 299.99 C 181.08 298.03 184.73 293.94 184.54 289.04 C 185.29 282.08 180.88 275.48 182.72 268.55 C 183.97 266.12 185.84 264.09 187.47 261.92 C 186.11 260.20 184.24 258.77 183.38 256.73 C 182.71 252.79 188.01 252.03 189.42 248.95 C 189.21 245.10 186.49 241.87 186.30 238.00 C 186.19 235.37 185.84 232.06 188.41 230.43 C 193.84 226.64 200.99 226.74 206.50 223.01 C 206.71 219.61 204.89 216.67 203.07 213.97 C 200.45 210.20 198.61 205.90 195.46 202.52 C 191.19 197.95 188.60 192.19 184.92 187.19 C 182.35 182.81 178.68 178.40 179.13 173.00 C 179.05 169.83 181.88 167.86 183.51 165.49 C 186.26 162.18 186.88 157.57 185.80 153.49 C 183.50 142.92 179.14 132.94 174.86 123.05 C 171.54 117.63 168.72 111.92 165.50 106.45 C 159.17 98.52 152.62 90.63 144.62 84.31 C 139.83 79.85 133.97 76.12 127.42 75.10 Z" />
<path fill="#0340a8" opacity="1.00" d=" M 81.44 150.72 C 88.06 150.02 95.14 149.78 101.26 152.82 C 110.29 156.89 117.73 165.32 119.42 175.24 C 121.68 185.39 118.83 196.92 111.17 204.16 C 99.47 217.17 76.59 217.01 64.90 204.09 C 58.88 198.13 55.81 189.39 56.33 180.97 C 55.99 166.55 67.39 153.34 81.44 150.72 Z" />
</g>
<g id="#ffffffff">
<path fill="#ffffff" opacity="1.00" d=" M 113.23 60.03 C 136.29 54.25 160.12 50.06 183.96 51.99 C 203.15 54.18 222.51 56.55 240.85 62.91 C 264.13 70.33 285.70 82.87 303.98 99.05 C 309.85 104.84 315.60 110.76 321.55 116.48 C 327.61 122.59 331.96 130.08 336.69 137.21 C 339.05 141.31 340.71 145.79 343.10 149.89 C 347.57 158.57 349.83 168.20 352.09 177.65 C 353.58 187.35 353.13 197.22 353.20 207.00 C 353.23 213.21 351.74 219.25 350.59 225.30 C 346.89 243.89 338.75 261.42 327.90 276.89 C 323.03 282.73 319.45 289.60 313.56 294.56 C 308.86 300.32 302.04 303.59 296.96 308.93 C 294.83 310.96 292.16 312.24 289.68 313.76 C 286.62 315.61 283.90 317.95 280.88 319.86 C 272.78 325.02 263.62 328.10 254.94 332.08 C 224.87 345.21 191.65 350.08 158.99 348.67 C 150.76 349.12 142.73 347.20 134.63 346.07 C 124.85 344.38 115.23 341.88 105.73 339.04 C 100.45 337.40 94.91 336.39 90.03 333.68 C 91.76 330.27 96.21 327.48 100.02 329.08 C 120.40 335.22 141.66 339.00 163.00 338.47 C 185.15 339.15 206.94 333.95 228.09 327.88 C 240.47 323.71 252.25 317.95 263.65 311.61 C 270.19 307.62 276.81 303.67 282.66 298.68 C 288.30 294.36 292.74 288.76 297.92 283.93 C 304.18 278.43 309.05 271.57 313.52 264.59 C 319.15 254.33 326.00 244.39 328.51 232.78 C 329.78 225.20 331.38 217.67 332.12 210.01 C 333.29 193.63 331.90 176.96 326.94 161.25 C 325.19 155.59 322.59 150.26 320.32 144.81 C 316.68 136.28 310.77 129.05 305.27 121.69 C 301.98 117.36 297.65 114.01 293.99 110.02 C 287.14 102.76 279.43 96.35 271.17 90.75 C 263.65 84.56 254.91 80.05 246.14 75.90 C 228.50 67.15 209.14 62.36 189.72 59.66 C 182.43 59.30 175.33 57.14 168.00 57.47 C 159.39 57.78 150.68 56.74 142.17 58.48 C 133.96 59.70 125.69 60.68 117.63 62.76 C 117.34 66.16 117.33 69.58 117.39 73.00 C 117.46 95.85 117.34 118.70 117.45 141.55 C 129.01 147.41 135.68 159.62 138.37 171.87 C 140.66 181.89 138.18 192.46 133.58 201.46 C 127.58 213.32 115.46 221.17 102.70 223.94 C 92.12 225.61 80.79 224.22 71.59 218.48 C 63.16 213.13 55.42 205.73 52.14 196.06 C 48.18 185.21 48.06 172.62 53.20 162.13 C 55.22 158.53 57.43 155.03 59.68 151.57 C 64.15 145.20 71.34 141.74 77.68 137.61 C 78.86 135.71 78.98 133.38 79.57 131.27 C 83.18 117.68 85.84 103.86 88.90 90.14 C 90.36 82.46 91.02 73.70 96.91 67.91 C 101.16 63.33 107.35 61.46 113.23 60.03 M 81.44 150.72 C 67.39 153.34 55.99 166.55 56.33 180.97 C 55.81 189.39 58.88 198.13 64.90 204.09 C 76.59 217.01 99.47 217.17 111.17 204.16 C 118.83 196.92 121.68 185.39 119.42 175.24 C 117.73 165.32 110.29 156.89 101.26 152.82 C 95.14 149.78 88.06 150.02 81.44 150.72 Z" />
<path fill="#ffffff" opacity="1.00" d=" M 146.63 71.62 C 156.82 71.08 167.08 71.22 177.18 72.86 C 190.35 73.69 203.33 76.45 215.93 80.30 C 242.21 88.95 267.08 103.68 284.69 125.33 C 293.28 135.10 298.24 147.33 302.90 159.31 C 308.22 171.39 308.08 184.94 307.49 197.87 C 305.70 212.57 301.38 227.40 292.51 239.45 C 290.25 243.44 288.13 247.58 284.49 250.52 C 279.01 256.65 273.72 263.01 267.42 268.36 C 258.34 275.57 248.44 281.68 238.21 287.11 C 226.86 292.35 215.04 296.65 202.89 299.64 C 199.39 300.57 195.75 300.68 192.15 300.64 C 192.62 295.56 194.60 290.76 194.93 285.66 C 195.58 281.18 193.73 276.74 194.48 272.27 C 195.74 269.31 199.19 267.44 199.41 263.99 C 199.14 261.69 198.17 259.50 198.14 257.17 C 199.36 254.97 201.82 253.46 202.42 250.98 C 202.27 246.54 198.43 243.30 197.77 239.00 C 198.80 235.46 202.87 234.21 206.03 233.24 C 211.04 231.92 216.99 230.08 219.01 224.75 C 220.24 222.24 218.72 219.69 217.32 217.66 C 213.58 212.30 210.82 206.31 206.85 201.11 C 202.04 194.89 197.59 188.41 192.80 182.18 C 191.80 180.62 190.30 179.04 190.55 177.04 C 192.11 172.47 195.98 168.86 196.62 163.94 C 197.21 158.10 197.04 152.11 195.36 146.45 C 191.24 131.69 185.12 117.29 176.04 104.87 C 173.05 100.33 169.96 95.79 166.04 91.99 C 160.27 86.41 154.81 80.51 148.81 75.16 C 147.95 74.10 146.09 73.24 146.63 71.62 Z" />
<path fill="#ffffff" opacity="1.00" d=" M 127.42 75.10 C 133.97 76.12 139.83 79.85 144.62 84.31 C 152.62 90.63 159.17 98.52 165.50 106.45 C 168.72 111.92 171.54 117.63 174.86 123.05 C 179.14 132.94 183.50 142.92 185.80 153.49 C 186.88 157.57 186.26 162.18 183.51 165.49 C 181.88 167.86 179.05 169.83 179.13 173.00 C 178.68 178.40 182.35 182.81 184.92 187.19 C 188.60 192.19 191.19 197.95 195.46 202.52 C 198.61 205.90 200.45 210.20 203.07 213.97 C 204.89 216.67 206.71 219.61 206.50 223.01 C 200.99 226.74 193.84 226.64 188.41 230.43 C 185.84 232.06 186.19 235.37 186.30 238.00 C 186.49 241.87 189.21 245.10 189.42 248.95 C 188.01 252.03 182.71 252.79 183.38 256.73 C 184.24 258.77 186.11 260.20 187.47 261.92 C 185.84 264.09 183.97 266.12 182.72 268.55 C 180.88 275.48 185.29 282.08 184.54 289.04 C 184.73 293.94 181.08 298.03 176.86 299.99 C 168.27 304.27 158.34 303.74 149.06 302.90 C 143.87 301.93 138.48 301.88 133.49 300.03 C 136.14 296.53 139.59 293.77 142.53 290.54 C 147.08 285.46 151.04 279.80 153.66 273.48 C 162.07 257.39 167.27 239.27 166.47 221.01 C 166.86 213.59 165.19 206.33 164.27 199.02 C 163.04 189.71 159.90 180.70 155.47 172.43 C 151.91 165.68 147.85 159.02 142.00 154.00 C 137.43 149.24 132.52 144.86 127.58 140.54 C 127.25 118.74 127.58 96.91 127.42 75.10 Z" />
</g>
</svg>
