<?xml version="1.0" encoding="UTF-8" ?>
<!DOCTYPE svg PUBLIC "-//W3C//DTD SVG 1.1//EN" "http://www.w3.org/Graphics/SVG/1.1/DTD/svg11.dtd">
<svg width="512pt" height="512pt" viewBox="0 0 512 512" version="1.1" xmlns="http://www.w3.org/2000/svg">
<g id="#359bedff">
<path fill="#359bed" opacity="1.00" d=" M 0.00 0.00 L 512.00 0.00 L 512.00 512.00 L 0.00 512.00 L 0.00 0.00 M 291.55 145.36 C 276.92 150.09 264.40 160.93 257.75 174.80 C 251.92 186.45 250.74 200.14 253.49 212.79 C 226.94 211.71 200.77 203.62 177.99 189.97 C 161.73 180.27 147.39 167.59 135.23 153.11 C 128.73 164.76 125.96 178.66 128.51 191.84 C 131.10 207.05 140.20 221.13 153.21 229.48 C 144.11 229.35 135.13 226.73 127.16 222.38 C 126.87 237.07 132.65 251.67 142.71 262.34 C 150.96 270.85 161.77 277.48 173.67 279.03 C 165.09 281.56 155.97 281.94 147.19 280.28 C 154.36 303.05 176.92 320.22 200.96 319.83 C 177.24 338.64 145.89 347.50 115.84 343.65 C 145.57 362.85 181.66 371.84 216.92 368.93 C 247.16 367.01 276.95 356.47 301.19 338.18 C 343.88 306.16 368.96 252.33 366.64 199.08 C 377.95 190.99 387.52 180.71 395.44 169.31 C 384.99 173.97 373.81 177.06 362.46 178.45 C 374.21 171.21 383.26 159.86 387.63 146.76 C 376.30 153.30 363.97 158.17 351.11 160.66 C 336.40 144.61 312.17 138.41 291.55 145.36 Z" />
</g>
<g id="#ffffffff">
<path fill="#ffffff" opacity="1.00" d=" M 291.55 145.36 C 312.17 138.41 336.40 144.61 351.11 160.66 C 363.97 158.17 376.30 153.30 387.63 146.76 C 383.26 159.86 374.21 171.21 362.46 178.45 C 373.81 177.06 384.99 173.97 395.44 169.31 C 387.52 180.71 377.95 190.99 366.64 199.08 C 368.96 252.33 343.88 306.16 301.19 338.18 C 276.95 356.47 247.16 367.01 216.92 368.93 C 181.66 371.84 145.57 362.85 115.84 343.65 C 145.89 347.50 177.24 338.64 200.96 319.83 C 176.92 320.22 154.36 303.05 147.19 280.28 C 155.97 281.94 165.09 281.56 173.67 279.03 C 161.77 277.48 150.96 270.85 142.71 262.34 C 132.65 251.67 126.87 237.07 127.16 222.38 C 135.13 226.73 144.11 229.35 153.21 229.48 C 140.20 221.13 131.10 207.05 128.51 191.84 C 125.96 178.66 128.73 164.76 135.23 153.11 C 147.39 167.59 161.73 180.27 177.99 189.97 C 200.77 203.62 226.94 211.71 253.49 212.79 C 250.74 200.14 251.92 186.45 257.75 174.80 C 264.40 160.93 276.92 150.09 291.55 145.36 Z" />
</g>
</svg>
